<svg width="32" height="48" viewBox="0 2 18 30" fill="none" xmlns="http://www.w3.org/2000/svg">
<path d="M1.13082 13.9768C1.18296 13.9144 1.24817 13.8642 1.32184 13.8298C1.39551 13.7953 1.47584 13.7775 1.55716 13.7775H12.7587L13.1809 11.4562C13.2041 11.3282 13.2716 11.2124 13.3714 11.1291C13.4713 11.0457 13.5972 11 13.7273 11H15.4445C15.5918 11 15.7331 11.0585 15.8373 11.1627C15.9415 11.2669 16 11.4082 16 11.5555C16 11.7028 15.9415 11.8441 15.8373 11.9483C15.7331 12.0525 15.5918 12.111 15.4445 12.111H14.1946L12.4198 21.8523C12.3676 22.1412 12.2399 22.4112 12.0497 22.6349C12.3122 22.88 12.5016 23.193 12.597 23.5393C12.6924 23.8855 12.6901 24.2513 12.5902 24.5963C12.4904 24.9412 12.297 25.2518 12.0314 25.4935C11.7658 25.7353 11.4385 25.8987 11.0857 25.9658C10.7329 26.0329 10.3684 26.0009 10.0327 25.8735C9.69697 25.746 9.40309 25.5281 9.18364 25.2438C8.9642 24.9596 8.82777 24.6201 8.78949 24.263C8.7512 23.906 8.81256 23.5453 8.96675 23.2209H5.81294C5.93721 23.4811 6.00152 23.7659 6.00111 24.0542C6.00111 24.4387 5.88708 24.8146 5.67345 25.1344C5.45981 25.4541 5.15617 25.7033 4.80091 25.8504C4.44564 25.9976 4.05473 26.0361 3.67758 25.9611C3.30044 25.8861 2.95401 25.7009 2.6821 25.429C2.4102 25.1571 2.22503 24.8106 2.15001 24.4335C2.07499 24.0564 2.1135 23.6654 2.26065 23.3102C2.4078 22.9549 2.657 22.6513 2.97673 22.4376C3.29645 22.224 3.67235 22.11 4.05688 22.11H10.7804C10.9105 22.1099 11.0365 22.0643 11.1364 21.9809C11.2362 21.8975 11.3037 21.7817 11.3269 21.6538L11.547 20.4435H3.49236C3.10209 20.4434 2.72422 20.3064 2.42463 20.0563C2.12503 19.8062 1.92272 19.4588 1.85296 19.0749L1.00861 14.4323C0.994316 14.352 0.997854 14.2696 1.01897 14.1909C1.04009 14.1122 1.07828 14.0391 1.13082 13.9768ZM9.88957 24.0542C9.88957 24.219 9.93844 24.3801 10.03 24.5171C10.1216 24.6541 10.2517 24.7609 10.4039 24.824C10.5562 24.8871 10.7237 24.9036 10.8854 24.8714C11.047 24.8393 11.1955 24.7599 11.312 24.6434C11.4285 24.5269 11.5079 24.3784 11.54 24.2168C11.5722 24.0551 11.5557 23.8876 11.4926 23.7353C11.4296 23.5831 11.3228 23.4529 11.1857 23.3614C11.0487 23.2698 10.8876 23.2209 10.7228 23.2209C10.5018 23.2209 10.2899 23.3087 10.1336 23.465C9.97736 23.6213 9.88957 23.8332 9.88957 24.0542ZM3.22364 24.0542C3.22364 24.219 3.27251 24.3801 3.36407 24.5171C3.45563 24.6541 3.58576 24.7609 3.73801 24.824C3.89027 24.8871 4.05781 24.9036 4.21944 24.8714C4.38107 24.8393 4.52954 24.7599 4.64607 24.6434C4.7626 24.5269 4.84196 24.3784 4.87411 24.2168C4.90626 24.0551 4.88976 23.8876 4.8267 23.7353C4.76363 23.5831 4.65683 23.4529 4.51981 23.3614C4.38278 23.2698 4.22168 23.2209 4.05688 23.2209C3.83589 23.2209 3.62396 23.3087 3.46769 23.465C3.31143 23.6213 3.22364 23.8332 3.22364 24.0542ZM2.94589 18.8763C2.96921 19.0046 3.03695 19.1207 3.13725 19.2041C3.23754 19.2875 3.364 19.3329 3.49444 19.3325H11.7491L12.5566 14.8885H2.22306L2.94589 18.8763Z" fill="#FF68C4"/>
<circle cx="2.5" cy="10.5" r="2.5" fill="#FF009B"/> <!-- //Logica items cart -->
<path d="M2.01138 9.44V9.108H2.76338V12H2.39538V9.44H2.01138Z" fill="white"/>
</svg>
